# xmcd CD database file
#
# Track frame offsets:
#	150
#	27754
#	60460
#	80182
#
# Disc length: 1378 seconds
#
# Revision: 0
# Processed by: cddbd v1.5.1PL0 Copyright (c) Steve Scherf et al.
# Submitted via: CDex 1.51
#
DISCID=2a056004
DTITLE=Majestics - Singles
DYEAR=2004
DGENRE=Ska
TTITLE0=17才
TTITLE1=Still Waiting
TTITLE2=It Hurts To Be Sixteen
TTITLE3=Hey Hello To Old Lovers
EXTD=YEAR: 2004
EXTT0=
EXTT1=
EXTT2=
EXTT3=
PLAYORDER=
